# Blender 4.5.3 LTS
# www.blender.org
mtllib mammothfur.mtl
o lowerbody
v -0.024095 1.913684 0.241502
v -0.024095 1.913684 -5.385097
v -0.024095 6.201385 0.241502
v -0.024095 6.201385 -5.385097
vn 1.0000 -0.0000 -0.0000
vt 0.000000 0.000000
vt 1.000000 0.000000
vt 1.000000 1.000000
vt 0.000000 1.000000
s 0
usemtl Material
f 1/1/1 2/2/1 4/3/1 3/4/1
o buttfur
v -1.455713 3.110245 -5.870428
v 1.455713 3.110245 -5.870428
v -1.455713 5.283496 -5.762466
v 1.455713 5.283496 -5.762466
vn -0.0000 -0.0496 0.9988
vt 0.000000 0.000000
vt 1.000000 0.000000
vt 1.000000 1.000000
vt 0.000000 1.000000
s 0
usemtl Material
f 5/5/2 6/6/2 8/7/2 7/8/2
o Plane
v -0.624235 8.331858 2.198843
v 0.624235 8.331858 2.198843
v -0.632489 8.335667 0.961611
v 0.632489 8.335667 0.961611
v -0.652254 8.508780 1.580997
v 0.000000 8.412185 2.198843
v 0.652254 8.508780 1.580997
v 0.000000 8.415431 0.947656
v 0.000000 8.591311 1.580997
v -0.639112 8.425792 1.893244
v 0.308119 8.420767 2.198843
v 0.642618 8.452682 1.259336
v -0.316373 8.423245 0.946289
v -0.642618 8.452682 1.259336
v -0.308119 8.420767 2.198843
v 0.639112 8.425792 1.893244
v 0.316373 8.423245 0.946289
v 0.000000 8.533233 1.245244
v 0.000000 8.507289 1.893244
v -0.336138 8.597689 1.580997
v 0.336138 8.597689 1.580997
v 0.322996 8.514701 1.893244
v -0.322996 8.514701 1.893244
v -0.326502 8.540261 1.244015
v 0.326502 8.540261 1.244015
vn -0.2587 0.9197 0.2953
vn 0.2587 0.9197 0.2953
vn -0.2652 0.8943 -0.3605
vn 0.2652 0.8943 -0.3605
vn -0.2715 0.9614 0.0454
vn -0.0000 0.9555 0.2949
vn 0.2715 0.9614 0.0454
vn -0.0000 0.9304 -0.3666
vn -0.0000 0.9990 0.0457
vn -0.2601 0.9249 0.2772
vn 0.1176 0.9473 0.2981
vn 0.2683 0.9256 -0.2670
vn -0.1218 0.9220 -0.3674
vn -0.2683 0.9256 -0.2670
vn -0.1176 0.9473 0.2981
vn 0.2601 0.9249 0.2772
vn 0.1218 0.9220 -0.3674
vn -0.0000 0.9631 -0.2693
vn -0.0000 0.9610 0.2766
vn -0.1274 0.9908 0.0446
vn 0.1274 0.9908 0.0446
vn 0.1203 0.9527 0.2790
vn -0.1203 0.9527 0.2790
vn -0.1236 0.9549 -0.2701
vn 0.1236 0.9549 -0.2701
vt 0.652706 0.657564
vt 0.810664 0.656703
vt 0.812556 0.812593
vt 0.652610 0.810752
vt 0.345843 0.657564
vt 0.499274 0.659702
vt 0.499274 0.812827
vt 0.345939 0.810752
vt 0.346138 0.348635
vt 0.499275 0.346536
vt 0.499275 0.498998
vt 0.343043 0.499356
vt 0.652411 0.348635
vt 0.808765 0.341170
vt 0.810033 0.497123
vt 0.655506 0.499356
vt 0.499274 0.193652
vt 0.647909 0.195795
vt 0.805707 0.187173
vt 0.189784 0.341170
vt 0.188516 0.497123
vt 0.192842 0.187173
vt 0.350640 0.195795
vt 0.187885 0.656703
vt 0.185993 0.812593
s 1
usemtl Material
f 33/9/27 20/10/14 12/11/6 25/12/19
f 32/13/26 26/14/20 16/15/10 21/16/15
f 31/17/25 27/18/21 17/19/11 28/20/22
f 30/21/24 24/22/18 15/23/9 29/24/23
f 27/18/21 30/21/24 29/24/23 17/19/11
f 14/25/8 19/26/13 30/21/24 27/18/21
f 19/26/13 10/27/4 24/22/18 30/21/24
f 18/28/12 31/17/25 28/20/22 13/29/7
f 9/30/3 23/31/17 31/17/25 18/28/12
f 23/31/17 14/25/8 27/18/21 31/17/25
f 22/32/16 32/13/26 21/16/15 11/33/5
f 13/29/7 28/20/22 32/13/26 22/32/16
f 28/20/22 17/19/11 26/14/20 32/13/26
f 26/14/20 33/9/27 25/12/19 16/15/10
f 17/19/11 29/24/23 33/9/27 26/14/20
f 29/24/23 15/23/9 20/10/14 33/9/27
