# Blender 4.5.3 LTS
# www.blender.org
mtllib snowmannew.mtl
g Armen_Armen
v 0.000000 1.628996 -0.494871
v 0.000000 2.104197 -1.086126
v 0.017167 1.633995 -0.491094
v 0.002574 2.104947 -1.085560
v 0.026301 1.646654 -0.481531
v 0.003944 2.106845 -1.084126
v 0.023129 1.661048 -0.470656
v 0.003468 2.109003 -1.082495
v 0.009134 1.670444 -0.463559
v 0.001370 2.110412 -1.081431
v -0.009134 1.670444 -0.463559
v -0.001370 2.110412 -1.081431
v -0.023129 1.661048 -0.470656
v -0.003468 2.109003 -1.082495
v -0.026301 1.646654 -0.481531
v -0.003944 2.106845 -1.084126
v -0.017167 1.633995 -0.491094
v -0.002574 2.104947 -1.085560
v 0.000000 1.966242 -0.931472
v 0.013376 1.970138 -0.928529
v 0.020493 1.980001 -0.921078
v 0.018022 1.991217 -0.912604
v 0.007117 1.998538 -0.907074
v -0.007117 1.998538 -0.907074
v -0.018022 1.991217 -0.912604
v -0.020493 1.980001 -0.921078
v -0.013376 1.970138 -0.928529
v 0.000000 1.984470 -0.957257
v 0.014017 1.988552 -0.954173
v 0.021475 1.998887 -0.946365
v 0.018884 2.010640 -0.937486
v 0.007458 2.018312 -0.931691
v -0.007458 2.018312 -0.931691
v -0.018884 2.010640 -0.937486
v -0.021475 1.998887 -0.946365
v -0.014017 1.988552 -0.954173
v 0.066707 1.920134 -1.124153
v 0.066707 1.914341 -1.116485
v 0.061480 1.912818 -1.117635
v 0.061480 1.918611 -1.125303
v 0.012819 1.628996 0.408349
v 0.012819 2.104197 0.999605
v -0.004348 1.633995 0.404572
v 0.010245 2.104947 0.999038
v -0.013482 1.646654 0.395009
v 0.008875 2.106845 0.997604
v -0.010310 1.661048 0.384134
v 0.009351 2.109004 0.995974
v 0.003684 1.670444 0.377037
v 0.011449 2.110412 0.994909
v 0.021953 1.670444 0.377037
v 0.014188 2.110412 0.994909
v 0.035947 1.661048 0.384134
v 0.016287 2.109004 0.995974
v 0.039120 1.646654 0.395009
v 0.016763 2.106845 0.997604
v 0.029985 1.633995 0.404572
v 0.015393 2.104947 0.999038
v 0.012819 1.966242 0.844950
v -0.000557 1.970138 0.842007
v -0.007675 1.980001 0.834556
v -0.005203 1.991217 0.826083
v 0.005701 1.998538 0.820552
v 0.019936 1.998538 0.820552
v 0.030840 1.991217 0.826083
v 0.033312 1.980001 0.834556
v 0.026195 1.970138 0.842007
v 0.012819 1.984470 0.870735
v -0.001198 1.988552 0.867651
v -0.008656 1.998887 0.859843
v -0.006066 2.010640 0.850964
v 0.005361 2.018312 0.845169
v 0.020277 2.018312 0.845169
v 0.031703 2.010640 0.850964
v 0.034293 1.998887 0.859843
v 0.026835 1.988552 0.867651
v -0.053889 1.920134 1.037631
v -0.053889 1.914341 1.029964
v -0.048661 1.912818 1.031113
v -0.048661 1.918612 1.038781
vn 0.3413 -0.6886 -0.6398
vn 0.8627 -0.3389 -0.3754
vn 0.9804 0.1950 0.0280
vn 0.6409 0.6652 0.3831
vn -0.0000 0.8518 0.5239
vn -0.6409 0.6652 0.3831
vn -0.9804 0.1950 0.0280
vn -0.0000 0.6028 -0.7979
vn -0.8627 -0.3389 -0.3754
vn -0.3413 -0.6886 -0.6398
vn -0.3429 -0.7434 -0.5743
vn -0.8666 -0.3920 -0.3088
vn -0.9848 0.1442 0.0964
vn -0.6438 0.6166 0.4532
vn -0.0000 0.8039 0.5947
vn 0.6438 0.6166 0.4532
vn 0.9848 0.1442 0.0964
vn 0.8666 -0.3920 -0.3088
vn 0.3429 -0.7434 -0.5743
vn -0.3427 -0.7671 -0.5423
vn -0.8662 -0.4159 -0.2770
vn -0.9845 0.1203 0.1280
vn -0.6435 0.5924 0.4847
vn -0.0000 0.7796 0.6262
vn 0.6435 0.5924 0.4847
vn 0.9845 0.1202 0.1280
vn 0.8662 -0.4159 -0.2770
vn -0.9268 -0.3050 -0.2190
vn 0.3430 -0.7495 -0.5662
vn 0.9495 0.2449 0.1962
vn 0.1964 -0.9234 0.3299
vn -0.1698 0.8948 -0.4128
vn -0.3413 -0.6886 0.6398
vn -0.8627 -0.3389 0.3754
vn -0.9804 0.1949 -0.0280
vn -0.6409 0.6652 -0.3831
vn -0.0000 0.8518 -0.5239
vn 0.6409 0.6652 -0.3831
vn 0.9804 0.1949 -0.0280
vn -0.0000 0.6028 0.7979
vn 0.8627 -0.3389 0.3754
vn 0.3414 -0.6886 0.6398
vn 0.3429 -0.7434 0.5742
vn 0.8666 -0.3921 0.3088
vn 0.9848 0.1443 -0.0964
vn 0.6438 0.6166 -0.4532
vn -0.0000 0.8039 -0.5947
vn -0.6438 0.6166 -0.4532
vn -0.9848 0.1442 -0.0964
vn -0.8666 -0.3921 0.3088
vn -0.3429 -0.7434 0.5743
vn 0.3427 -0.7671 0.5423
vn 0.8662 -0.4158 0.2770
vn 0.9845 0.1203 -0.1280
vn 0.6436 0.5923 -0.4847
vn -0.0000 0.7796 -0.6262
vn -0.6436 0.5924 -0.4847
vn -0.9845 0.1203 -0.1280
vn -0.8662 -0.4159 0.2770
vn 0.9268 -0.3050 0.2190
vn -0.3428 -0.7495 0.5663
vn -0.9495 0.2449 -0.1962
vn -0.1964 -0.9234 -0.3299
vn 0.1698 0.8949 0.4128
vt 0.954062 0.651675
vt 0.955825 0.622231
vt 0.955836 0.622136
vt 0.955606 0.651769
vt 0.955844 0.621987
vt 0.957642 0.651224
vt 0.955790 0.621826
vt 0.959790 0.650822
vt 0.939911 0.646754
vt 0.955697 0.621924
vt 0.942425 0.647851
vt 0.955653 0.622038
vt 0.944906 0.648756
vt 0.955654 0.622140
vt 0.947351 0.649524
vt 0.955691 0.622215
vt 0.949727 0.650210
vt 0.955762 0.622249
vt 0.951990 0.650886
vt 0.943082 0.785744
vt 0.951582 0.654546
vt 0.953987 0.654042
vt 0.947449 0.785882
vt 0.938728 0.785375
vt 0.948987 0.654678
vt 0.934381 0.784962
vt 0.946265 0.654532
vt 0.930046 0.784518
vt 0.943449 0.654172
vt 0.925719 0.784034
vt 0.940545 0.653640
vt 0.921389 0.783515
vt 0.937527 0.652968
vt 0.956179 0.786049
vt 0.958006 0.654503
vt 0.960546 0.654536
vt 0.960546 0.786066
vt 0.951811 0.785988
vt 0.955629 0.654042
vt 0.954915 0.647309
vt 0.954970 0.647326
vt 0.954915 0.647290
vt 0.954865 0.647332
vt 0.890108 0.764378
vt 0.890614 0.793710
vt 0.890581 0.793682
vt 0.888546 0.764448
vt 0.890524 0.793712
vt 0.886466 0.765264
vt 0.890484 0.793783
vt 0.884197 0.765984
vt 0.890486 0.793883
vt 0.881822 0.766727
vt 0.890518 0.793998
vt 0.879390 0.767541
vt 0.890597 0.794110
vt 0.876929 0.768509
vt 0.896825 0.765944
vt 0.890643 0.793945
vt 0.894484 0.765471
vt 0.890636 0.793807
vt 0.892218 0.764987
vt 0.889080 0.629652
vt 0.892460 0.761347
vt 0.890060 0.761957
vt 0.884715 0.629750
vt 0.893449 0.629593
vt 0.895068 0.761115
vt 0.897819 0.629577
vt 0.897819 0.761189
vt 0.862964 0.631586
vt 0.877757 0.762090
vt 0.874807 0.762685
vt 0.858635 0.632103
vt 0.867293 0.631105
vt 0.880602 0.761674
vt 0.871632 0.630660
vt 0.883350 0.761476
vt 0.875983 0.630247
vt 0.885977 0.761556
vt 0.880346 0.629879
vt 0.888418 0.762009
vt 0.889549 0.769060
vt 0.889490 0.769042
vt 0.889551 0.769080
vt 0.889601 0.769034
s 1
f 28/1/1 2/2/1 4/3/1 29/4/1
f 29/4/2 4/3/2 6/5/2 30/6/2
f 30/6/3 6/5/3 8/7/3 31/8/3
f 31/9/4 8/7/4 10/10/4 32/11/4
f 32/11/5 10/10/5 12/12/5 33/13/5
f 33/13/6 12/12/6 14/14/6 34/15/6
f 34/15/7 14/14/7 16/16/7 35/17/7
f 4/3/8 2/2/8 18/18/8 16/16/8 14/14/8 12/12/8 10/10/8 8/7/8 6/5/8
f 35/17/9 16/16/9 18/18/9 36/19/9
f 36/19/10 18/18/10 2/2/10 28/1/10
f 17/20/11 27/21/11 19/22/11 1/23/11
f 15/24/12 26/25/12 27/21/12 17/20/12
f 13/26/13 25/27/13 26/25/13 15/24/13
f 11/28/14 24/29/14 25/27/14 13/26/14
f 9/30/15 23/31/15 24/29/15 11/28/15
f 7/32/16 22/33/16 23/31/16 9/30/16
f 5/34/17 21/35/17 22/36/17 7/37/17
f 3/38/18 20/39/18 21/35/18 5/34/18
f 1/23/19 19/22/19 20/39/19 3/38/19
f 27/21/20 36/19/20 28/1/20 19/22/20
f 26/25/21 35/17/21 36/19/21 27/21/21
f 25/27/22 34/15/22 35/17/22 26/25/22
f 24/29/23 33/13/23 34/15/23 25/27/23
f 23/31/24 32/11/24 33/13/24 24/29/24
f 22/33/25 31/9/25 32/11/25 23/31/25
f 21/35/26 30/6/26 31/8/26 22/36/26
f 20/39/27 29/4/27 30/6/27 21/35/27
f 19/22/28 28/1/28 40/40/28 39/41/28
f 39/41/29 40/40/29 37/42/29 38/43/29
f 29/4/30 20/39/30 38/43/30 37/42/30
f 20/39/31 19/22/31 39/41/31 38/43/31
f 28/1/32 29/4/32 37/42/32 40/40/32
f 68/44/33 42/45/33 44/46/33 69/47/33
f 69/47/34 44/46/34 46/48/34 70/49/34
f 70/49/35 46/48/35 48/50/35 71/51/35
f 71/51/36 48/50/36 50/52/36 72/53/36
f 72/53/37 50/52/37 52/54/37 73/55/37
f 73/55/38 52/54/38 54/56/38 74/57/38
f 74/58/39 54/56/39 56/59/39 75/60/39
f 44/46/40 42/45/40 58/61/40 56/59/40 54/56/40 52/54/40 50/52/40 48/50/40 46/48/40
f 75/60/41 56/59/41 58/61/41 76/62/41
f 76/62/42 58/61/42 42/45/42 68/44/42
f 57/63/43 67/64/43 59/65/43 41/66/43
f 55/67/44 66/68/44 67/64/44 57/63/44
f 53/69/45 65/70/45 66/68/45 55/67/45
f 51/71/46 64/72/46 65/73/46 53/74/46
f 49/75/47 63/76/47 64/72/47 51/71/47
f 47/77/48 62/78/48 63/76/48 49/75/48
f 45/79/49 61/80/49 62/78/49 47/77/49
f 43/81/50 60/82/50 61/80/50 45/79/50
f 41/66/51 59/65/51 60/82/51 43/81/51
f 67/64/52 76/62/52 68/44/52 59/65/52
f 66/68/53 75/60/53 76/62/53 67/64/53
f 65/70/54 74/58/54 75/60/54 66/68/54
f 64/72/55 73/55/55 74/57/55 65/73/55
f 63/76/56 72/53/56 73/55/56 64/72/56
f 62/78/57 71/51/57 72/53/57 63/76/57
f 61/80/58 70/49/58 71/51/58 62/78/58
f 60/82/59 69/47/59 70/49/59 61/80/59
f 59/65/60 68/44/60 80/83/60 79/84/60
f 79/84/61 80/83/61 77/85/61 78/86/61
f 69/47/62 60/82/62 78/86/62 77/85/62
f 60/82/63 59/65/63 79/84/63 78/86/63
f 68/44/64 69/47/64 77/85/64 80/83/64
g Cylinder_Cylinder
v 0.389540 2.249482 -0.120342
v 0.794760 2.148071 -0.209514
v 0.385245 2.206274 -0.101427
v 0.794120 2.141637 -0.206698
v 0.394345 2.183284 -0.061032
v 0.795475 2.138214 -0.200683
v 0.412583 2.191268 -0.018058
v 0.798191 2.139403 -0.194284
v 0.431425 2.226492 0.007387
v 0.800996 2.144648 -0.190495
v 0.442055 2.272473 0.003397
v 0.802579 2.151494 -0.191089
v 0.439498 2.307696 -0.028161
v 0.802198 2.156739 -0.195789
v 0.424951 2.315681 -0.072521
v 0.800032 2.157928 -0.202394
v 0.405222 2.292690 -0.108926
v 0.797095 2.154505 -0.207814
v 0.843289 2.148071 -0.203336
vn -0.2227 -0.0331 -0.9743
vn -0.0611 -0.0894 -0.9941
vn -0.0903 -0.6681 -0.7386
vn -0.2841 -0.6512 -0.7038
vn 0.0025 -0.9807 -0.1956
vn -0.1539 -0.9800 -0.1259
vn 0.1732 -0.8880 0.4260
vn 0.1069 -0.8658 0.4888
vn 0.3371 -0.3860 0.8587
vn 0.3765 -0.3620 0.8528
vn 0.4166 0.3159 0.8525
vn 0.5285 0.2958 0.7957
vn 0.3790 0.8448 0.3777
vn 0.4919 0.7997 0.3443
vn 0.2444 0.9183 -0.3115
vn 0.2839 0.9139 -0.2903
vn 0.0722 0.5298 -0.8450
vn 0.0016 0.5850 -0.8110
vn 0.9960 -0.0104 -0.0889
vt 0.902834 0.947845
vt 0.947100 0.868521
vt 0.948370 0.869239
vt 0.912878 0.952729
vt 0.949780 0.869644
vt 0.923251 0.956501
vt 0.951256 0.869712
vt 0.933963 0.959163
vt 0.952788 0.869537
vt 0.944103 0.960667
vt 0.954347 0.869271
vt 0.954347 0.961196
vt 0.870952 0.920957
vt 0.943232 0.863742
vt 0.944166 0.865054
vt 0.877668 0.928663
vt 0.945064 0.866334
vt 0.885234 0.935712
vt 0.946014 0.867531
vt 0.893432 0.941991
vt 0.952488 0.859006
s 1
f 81/87/65 82/88/66 84/89/67 83/90/68
f 83/90/68 84/89/67 86/91/69 85/92/70
f 85/92/70 86/91/69 88/93/71 87/94/72
f 87/94/72 88/93/71 90/95/73 89/96/74
f 89/96/74 90/95/73 92/97/75 91/98/76
f 91/99/76 92/100/75 94/101/77 93/102/78
f 93/102/78 94/101/77 96/103/79 95/104/80
f 95/104/80 96/103/79 98/105/81 97/106/82
f 97/106/82 98/105/81 82/88/66 81/87/65
f 84/89/67 82/88/66 99/107/83
f 82/88/66 98/105/81 99/107/83
f 98/105/81 96/103/79 99/107/83
f 96/103/79 94/101/77 99/107/83
f 94/101/77 92/100/75 99/107/83
f 92/97/75 90/95/73 99/107/83
f 90/95/73 88/93/71 99/107/83
f 88/93/71 86/91/69 99/107/83
f 86/91/69 84/89/67 99/107/83
g Knoopjes_Knoopjes
v 0.477249 1.684412 0.012321
v 0.441597 1.745463 0.011898
v 0.477704 1.683583 -0.035832
v 0.442168 1.744435 -0.036344
v 0.494629 1.694562 0.012311
v 0.458977 1.755612 0.011888
v 0.495084 1.693732 -0.035842
v 0.459548 1.754585 -0.036354
v 0.457660 1.717968 0.023914
v 0.457718 1.717795 -0.048036
v 0.475098 1.727944 -0.048046
v 0.475040 1.728118 0.023904
v 0.480610 1.678633 -0.010923
v 0.436461 1.754234 -0.010896
v 0.497990 1.688782 -0.010933
v 0.453841 1.764383 -0.010906
v 0.474746 1.728585 -0.010919
v 0.527180 1.549913 0.012235
v 0.506734 1.617588 0.012897
v 0.524871 1.548999 -0.035862
v 0.504487 1.616454 -0.035293
v 0.546418 1.555735 0.011201
v 0.525972 1.623410 0.011863
v 0.544109 1.554821 -0.036897
v 0.523725 1.622276 -0.036327
v 0.516577 1.587109 0.024408
v 0.512770 1.586924 -0.047441
v 0.532009 1.592746 -0.048476
v 0.535816 1.592931 0.023374
v 0.527865 1.543509 -0.011077
v 0.502576 1.627313 -0.009708
v 0.547103 1.549331 -0.012112
v 0.521814 1.633135 -0.010742
v 0.533789 1.593453 -0.011391
v 0.539670 1.398923 0.012327
v 0.536856 1.469565 0.011882
v 0.539709 1.397963 -0.035825
v 0.536904 1.468376 -0.036359
v 0.559781 1.399724 0.012327
v 0.556967 1.470366 0.011882
v 0.559819 1.398764 -0.035825
v 0.557014 1.469176 -0.036359
v 0.538124 1.437750 0.023908
v 0.538132 1.437550 -0.048042
v 0.558242 1.438351 -0.048042
v 0.558234 1.438552 0.023908
v 0.539937 1.392235 -0.010915
v 0.536452 1.479713 -0.010915
v 0.560047 1.393036 -0.010915
v 0.556563 1.480514 -0.010915
v 0.558213 1.439092 -0.010915
vn -0.0164 0.0272 -0.9995
vn -0.3466 0.5928 -0.7269
vn 0.2748 0.7781 -0.5649
vn 0.5407 0.3440 -0.7676
vn 0.8635 0.5043 -0.0005
vn 0.1472 0.9891 -0.0002
vn 0.2754 0.7779 0.5648
vn 0.5408 0.3473 0.7661
vn -0.3457 0.5926 0.7275
vn -0.0174 0.0308 0.9994
vn 0.5041 -0.8632 0.0268
vn 0.9465 -0.3222 0.0199
vn 0.8129 -0.1751 0.5554
vn 0.3586 -0.6134 0.7036
vn -0.5043 0.8635 0.0001
vn 0.3689 -0.6325 -0.6811
vn 0.8192 -0.1934 -0.5399
vn -0.0628 0.0302 -0.9976
vn -0.2374 0.6572 -0.7153
vn 0.4178 0.6927 -0.5879
vn 0.5643 0.2086 -0.7988
vn 0.9559 0.2893 -0.0514
vn 0.3730 0.9276 -0.0201
vn 0.4784 0.6924 0.5401
vn 0.6466 0.2118 0.7328
vn -0.1592 0.6569 0.7370
vn 0.0433 0.0341 0.9985
vn 0.2902 -0.9569 0.0114
vn 0.8452 -0.5338 -0.0250
vn 0.7782 -0.3597 0.5148
vn 0.2430 -0.6801 0.6917
vn -0.2889 0.9572 0.0155
vn 0.1750 -0.7010 -0.6913
vn 0.7218 -0.3789 -0.5791
vn -0.0012 0.0314 -0.9995
vn -0.0273 0.6860 -0.7271
vn 0.6082 0.5578 -0.5647
vn 0.6393 0.0496 -0.7673
vn 0.9992 0.0398 -0.0000
vn 0.5944 0.8042 -0.0001
vn 0.6081 0.5577 0.5649
vn 0.6401 0.0529 0.7665
vn -0.0273 0.6858 0.7273
vn -0.0014 0.0357 0.9994
vn 0.0398 -0.9988 0.0271
vn 0.6844 -0.7289 0.0205
vn 0.6352 -0.5362 0.5559
vn 0.0283 -0.7098 0.7038
vn -0.0398 0.9992 -0.0002
vn 0.0291 -0.7318 -0.6809
vn 0.6327 -0.5556 -0.5395
vt 0.739863 0.788904
vt 0.740683 0.797270
vt 0.736188 0.796026
vt 0.736049 0.790537
vt 0.730285 0.793343
vt 0.733240 0.799420
vt 0.729138 0.799764
vt 0.724729 0.795846
vt 0.728204 0.805219
vt 0.719033 0.798820
vt 0.725516 0.781691
vt 0.727191 0.786469
vt 0.724204 0.789133
vt 0.719610 0.786319
vt 0.735953 0.803681
vt 0.732931 0.781691
vt 0.731213 0.785971
vt 0.663008 0.917704
vt 0.670222 0.912179
vt 0.671565 0.916450
vt 0.667470 0.920337
vt 0.673408 0.922851
vt 0.675990 0.916914
vt 0.678951 0.919536
vt 0.678926 0.925257
vt 0.682902 0.917630
vt 0.683583 0.926560
vt 0.668750 0.935224
vt 0.670400 0.929889
vt 0.674391 0.930188
vt 0.676505 0.934816
vt 0.678163 0.912179
vt 0.661676 0.929937
vt 0.667257 0.927083
vt 0.708262 0.833893
vt 0.700855 0.840553
vt 0.699415 0.835507
vt 0.703402 0.831417
vt 0.697257 0.829226
vt 0.694844 0.835543
vt 0.691912 0.832747
vt 0.691682 0.827039
vt 0.687354 0.834538
vt 0.687254 0.825209
vt 0.701091 0.817163
vt 0.699810 0.822109
vt 0.695865 0.821896
vt 0.694258 0.817938
vt 0.692441 0.839981
vt 0.708262 0.821513
vt 0.703074 0.824659
s 1
f 109/108/84 103/109/85 107/110/86 110/111/87
f 116/112/88 115/113/89 105/114/90 111/115/91
f 111/115/91 105/114/90 101/116/92 108/117/93
f 112/118/94 114/119/95 104/120/96 100/121/97
f 115/113/89 113/122/98 101/116/92 105/114/90
f 104/120/96 111/115/91 108/117/93 100/121/97
f 114/119/95 116/112/88 111/115/91 104/120/96
f 102/123/99 109/108/84 110/111/87 106/124/100
f 106/124/100 110/111/87 116/112/88 114/119/95
f 107/110/86 103/109/85 113/122/98 115/113/89
f 102/123/99 106/124/100 114/119/95 112/118/94
f 110/111/87 107/110/86 115/113/89 116/112/88
f 126/125/101 120/126/102 124/127/103 127/128/104
f 133/129/105 132/130/106 122/131/107 128/132/108
f 128/132/108 122/131/107 118/133/109 125/134/110
f 129/135/111 131/136/112 121/137/113 117/138/114
f 132/130/106 130/139/115 118/133/109 122/131/107
f 121/137/113 128/132/108 125/134/110 117/138/114
f 131/136/112 133/129/105 128/132/108 121/137/113
f 119/140/116 126/125/101 127/128/104 123/141/117
f 123/141/117 127/128/104 133/129/105 131/136/112
f 124/127/103 120/126/102 130/139/115 132/130/106
f 119/140/116 123/141/117 131/136/112 129/135/111
f 127/128/104 124/127/103 132/130/106 133/129/105
f 143/142/118 137/143/119 141/144/120 144/145/121
f 150/146/122 149/147/123 139/148/124 145/149/125
f 145/149/125 139/148/124 135/150/126 142/151/127
f 146/152/128 148/153/129 138/154/130 134/155/131
f 149/147/123 147/156/132 135/150/126 139/148/124
f 138/154/130 145/149/125 142/151/127 134/155/131
f 148/153/129 150/146/122 145/149/125 138/154/130
f 136/157/133 143/142/118 144/145/121 140/158/134
f 140/158/134 144/145/121 150/146/122 148/153/129
f 141/144/120 137/143/119 147/156/132 149/147/123
f 136/157/133 140/158/134 148/153/129 146/152/128
f 144/145/121 141/144/120 149/147/123 150/146/122
g Lichaam_Lichaam
v 0.000000 1.138190 -0.532111
v 0.000000 0.111949 -0.532111
v 0.000000 0.021703 -0.422146
v 0.301605 1.138190 -0.434113
v 0.354650 1.028226 -0.507123
v 0.394066 0.902768 -0.561375
v 0.418338 0.766639 -0.594783
v 0.426533 0.625069 -0.606063
v 0.418338 0.483500 -0.594783
v 0.394066 0.347371 -0.561375
v 0.354650 0.221913 -0.507123
v 0.301605 0.111949 -0.434113
v 0.236969 0.021703 -0.345150
v 0.163227 -0.045355 -0.243653
v 0.083213 -0.086649 -0.133522
v 0.488007 1.138190 -0.177553
v 0.573835 1.028226 -0.205440
v 0.637611 0.902768 -0.226163
v 0.676885 0.766639 -0.238923
v 0.690146 0.625069 -0.243232
v 0.676885 0.483500 -0.238923
v 0.637611 0.347371 -0.226162
v 0.573835 0.221913 -0.205440
v 0.488007 0.111949 -0.177553
v 0.383424 0.021703 -0.143572
v 0.264107 -0.045355 -0.104804
v 0.134641 -0.086649 -0.062737
v 0.488007 1.138190 0.139573
v 0.573835 1.028226 0.167460
v 0.637611 0.902768 0.188182
v 0.676885 0.766639 0.200943
v 0.690146 0.625069 0.205252
v 0.676885 0.483500 0.200943
v 0.637611 0.347371 0.188183
v 0.573835 0.221913 0.167460
v 0.488007 0.111949 0.139573
v 0.383424 0.021703 0.105592
v 0.264107 -0.045355 0.066824
v 0.134641 -0.086649 0.024758
v 0.301605 1.138190 0.396133
v 0.354650 1.028226 0.469143
v 0.394066 0.902768 0.523395
v 0.418338 0.766639 0.556803
v 0.426534 0.625069 0.568083
v 0.418338 0.483500 0.556803
v 0.394066 0.347371 0.523395
v 0.354650 0.221913 0.469143
v 0.301605 0.111949 0.396133
v 0.236969 0.021703 0.307170
v 0.163227 -0.045355 0.205673
v 0.083213 -0.086649 0.095542
v 0.000000 1.138190 0.494131
v 0.000000 1.028226 0.584376
v 0.000000 0.902768 0.651434
v 0.000000 0.766639 0.692729
v 0.000000 0.625069 0.706672
v 0.000000 0.483500 0.692729
v 0.000000 0.347371 0.651434
v 0.000000 0.221913 0.584376
v 0.000000 0.111949 0.494131
v 0.000000 0.021703 0.384166
v 0.000000 -0.045355 0.258709
v 0.000000 -0.086649 0.122580
v 0.000000 -0.100593 -0.018990
v 0.000000 1.028226 -0.622356
v 0.000000 0.902768 -0.689414
v 0.000000 0.766639 -0.730709
v 0.000000 0.625069 -0.744652
v 0.000000 0.483500 -0.730709
v 0.000000 0.347371 -0.689414
v 0.000000 0.221913 -0.622356
v 0.000000 -0.045355 -0.296689
v 0.000000 -0.086649 -0.160560
v 0.000000 2.668761 -0.361658
v 0.000000 1.821415 -0.422694
v 0.000000 1.983425 -0.361658
v 0.000000 1.923158 -0.288223
v 0.055570 2.801387 -0.095476
v 0.109005 2.773810 -0.169023
v 0.158251 2.729027 -0.236804
v 0.186439 1.892416 -0.275601
v 0.201415 2.668761 -0.296214
v 0.237291 1.821415 -0.345594
v 0.236839 2.595325 -0.344971
v 0.279025 1.734899 -0.403035
v 0.263162 2.511543 -0.381201
v 0.310036 1.636194 -0.445718
v 0.279371 2.420634 -0.403511
v 0.329132 1.529092 -0.472002
v 0.335581 1.417711 -0.480877
v 0.284844 2.326092 -0.411044
v 0.279371 2.231551 -0.403511
v 0.329132 1.306329 -0.472002
v 0.310036 1.199228 -0.445718
v 0.263162 2.140642 -0.381201
v 0.236839 2.056860 -0.344971
v 0.201415 1.983425 -0.296214
v 0.158251 1.923158 -0.236804
v 0.089915 2.801387 -0.048205
v 0.176374 2.773810 -0.076298
v 0.301664 1.892416 -0.117007
v 0.256055 2.729027 -0.102188
v 0.383945 1.821415 -0.143742
v 0.325897 2.668761 -0.124880
v 0.451472 1.734899 -0.165682
v 0.389165 2.599097 -0.145457
v 0.432414 2.515749 -0.159512
v 0.501649 1.636194 -0.181986
v 0.532548 1.529092 -0.192025
v 0.452032 2.420634 -0.165864
v 0.542981 1.417711 -0.195415
v 0.460887 2.326092 -0.168742
v 0.532548 1.306329 -0.192025
v 0.452773 2.231152 -0.166105
v 0.501649 1.199228 -0.181986
v 0.443865 2.131015 -0.163211
v 0.405047 2.044511 -0.150598
v 0.326719 1.982965 -0.125148
v 0.256055 1.923158 -0.102188
v 0.089915 2.801387 0.010225
v 0.176374 2.773810 0.038317
v 0.301664 1.892416 0.079026
v 0.256055 2.729027 0.064207
v 0.383945 1.821415 0.105761
v 0.325897 2.668761 0.086900
v 0.451472 1.734899 0.127702
v 0.383214 2.595325 0.105524
v 0.428340 2.512518 0.120186
v 0.501649 1.636194 0.144005
v 0.532548 1.529092 0.154045
v 0.457912 2.423832 0.129039
v 0.542981 1.417711 0.157435
v 0.461043 2.325555 0.130711
v 0.532548 1.306329 0.154045
v 0.454857 2.230342 0.128806
v 0.501649 1.199228 0.144006
v 0.429796 2.138934 0.120665
v 0.383558 2.056713 0.105636
v 0.325897 1.983425 0.086900
v 0.256055 1.923158 0.064207
v 0.055570 2.801387 0.057496
v 0.109005 2.773810 0.131043
v 0.158251 2.729028 0.198824
v 0.186439 1.892416 0.237621
v 0.201415 2.668761 0.258234
v 0.237291 1.821415 0.307613
v 0.279025 1.734899 0.365055
v 0.236839 2.595325 0.306991
v 0.310036 1.636194 0.407738
v 0.263162 2.511543 0.343221
v 0.279371 2.420635 0.365531
v 0.329132 1.529092 0.434022
v 0.284844 2.326092 0.373064
v 0.335581 1.417711 0.442897
v 0.279772 2.231264 0.366091
v 0.329132 1.306329 0.434022
v 0.310036 1.199228 0.407738
v 0.265194 2.139144 0.346056
v 0.237311 2.056481 0.307649
v 0.201415 1.983425 0.258234
v 0.158251 1.923158 0.198824
v 0.000000 2.801387 0.075552
v 0.000000 2.773810 0.166460
v 0.000000 2.729028 0.250242
v 0.000000 1.892416 0.298198
v 0.000000 2.668761 0.323678
v 0.000000 1.821415 0.384714
v 0.000000 1.734899 0.455716
v 0.000000 2.595325 0.383945
v 0.000000 2.511543 0.428727
v 0.000000 1.636194 0.508475
v 0.000000 2.420635 0.456304
v 0.000000 1.529092 0.540964
v 0.000000 2.326092 0.465616
v 0.000000 1.417711 0.551934
v 0.000000 1.306329 0.540964
v 0.000000 2.231551 0.456304
v 0.000000 2.140642 0.428727
v 0.000000 1.199228 0.508475
v 0.000000 2.056708 0.384171
v 0.000000 1.983292 0.323876
v 0.000000 1.923158 0.250242
v 0.000000 2.810698 -0.018990
v 0.000000 2.801387 -0.113532
v 0.000000 2.773810 -0.204441
v 0.000000 2.729027 -0.288223
v 0.000000 1.892416 -0.336178
v 0.000000 2.595325 -0.421925
v 0.000000 1.734899 -0.493696
v 0.000000 2.511543 -0.466707
v 0.000000 1.636194 -0.546455
v 0.000000 1.529092 -0.578944
v 0.000000 2.420634 -0.494284
v 0.000000 1.417711 -0.589914
v 0.000000 2.326092 -0.503596
v 0.000000 1.306329 -0.578944
v 0.000000 2.231551 -0.494284
v 0.000000 2.140642 -0.466707
v 0.000000 1.199228 -0.546455
v 0.000000 2.056860 -0.421925
v 0.000000 1.920603 -0.283444
v 0.155442 1.920603 -0.232938
v 0.155442 1.920603 -0.232938
v 0.251511 1.920604 -0.100711
v 0.251511 1.920604 -0.100711
v 0.251511 1.920604 0.062731
v 0.251511 1.920604 0.062731
v 0.155442 1.920604 0.194958
v 0.155442 1.920604 0.194958
v 0.000000 1.920604 0.245464
v 0.000000 1.920604 0.245464
v 0.000000 1.920603 -0.283444
v 0.294136 1.148618 -0.423833
v 0.000000 1.148618 -0.519404
v 0.475922 1.148618 -0.173626
v 0.475922 1.148618 0.135646
v 0.294136 1.148618 0.385853
v 0.000000 1.148618 0.481424
v -0.301605 1.138190 -0.434113
v -0.354650 1.028226 -0.507123
v -0.394066 0.902768 -0.561375
v -0.418338 0.766639 -0.594783
v -0.426533 0.625069 -0.606063
v -0.418338 0.483500 -0.594783
v -0.394066 0.347371 -0.561375
v -0.354650 0.221913 -0.507123
v -0.301605 0.111949 -0.434113
v -0.236969 0.021703 -0.345150
v -0.163227 -0.045355 -0.243653
v -0.083213 -0.086649 -0.133522
v -0.488007 1.138190 -0.177553
v -0.573835 1.028226 -0.205440
v -0.637611 0.902768 -0.226163
v -0.676885 0.766639 -0.238923
v -0.690146 0.625069 -0.243232
v -0.676885 0.483500 -0.238923
v -0.637611 0.347371 -0.226162
v -0.573835 0.221913 -0.205440
v -0.488007 0.111949 -0.177553
v -0.383424 0.021703 -0.143572
v -0.264107 -0.045355 -0.104804
v -0.134641 -0.086649 -0.062737
v -0.488007 1.138190 0.139573
v -0.573835 1.028226 0.167460
v -0.637611 0.902768 0.188182
v -0.676885 0.766639 0.200943
v -0.690146 0.625069 0.205252
v -0.676885 0.483500 0.200943
v -0.637611 0.347371 0.188183
v -0.573835 0.221913 0.167460
v -0.488007 0.111949 0.139573
v -0.383424 0.021703 0.105592
v -0.264107 -0.045355 0.066824
v -0.134641 -0.086649 0.024758
v -0.301605 1.138190 0.396133
v -0.354650 1.028226 0.469143
v -0.394066 0.902768 0.523395
v -0.418338 0.766639 0.556803
v -0.426534 0.625069 0.568083
v -0.418338 0.483500 0.556803
v -0.394066 0.347371 0.523395
v -0.354650 0.221913 0.469143
v -0.301605 0.111949 0.396133
v -0.236969 0.021703 0.307170
v -0.163227 -0.045355 0.205673
v -0.083213 -0.086649 0.095542
v -0.055570 2.801387 -0.095476
v -0.109005 2.773810 -0.169023
v -0.158251 2.729027 -0.236804
v -0.186439 1.892416 -0.275601
v -0.201415 2.668761 -0.296214
v -0.237291 1.821415 -0.345594
v -0.236839 2.595325 -0.344971
v -0.279025 1.734899 -0.403035
v -0.263162 2.511543 -0.381201
v -0.310036 1.636194 -0.445718
v -0.279371 2.420634 -0.403511
v -0.329132 1.529092 -0.472002
v -0.335581 1.417711 -0.480877
v -0.284844 2.326092 -0.411044
v -0.279371 2.231551 -0.403511
v -0.329132 1.306329 -0.472002
v -0.310036 1.199228 -0.445718
v -0.263162 2.140642 -0.381201
v -0.236839 2.056860 -0.344971
v -0.201415 1.983425 -0.296214
v -0.158251 1.923158 -0.236804
v -0.089915 2.801387 -0.048205
v -0.176374 2.773810 -0.076298
v -0.301664 1.892416 -0.117007
v -0.256055 2.729027 -0.102188
v -0.383945 1.821415 -0.143742
v -0.325897 2.668761 -0.124880
v -0.451472 1.734899 -0.165682
v -0.389165 2.599097 -0.145457
v -0.432414 2.515749 -0.159512
v -0.501649 1.636194 -0.181986
v -0.532548 1.529092 -0.192025
v -0.452032 2.420634 -0.165864
v -0.542981 1.417711 -0.195415
v -0.460887 2.326092 -0.168742
v -0.532548 1.306329 -0.192025
v -0.452773 2.231152 -0.166105
v -0.501649 1.199228 -0.181986
v -0.443865 2.131015 -0.163211
v -0.405047 2.044511 -0.150598
v -0.326719 1.982965 -0.125148
v -0.256055 1.923158 -0.102188
v -0.089915 2.801387 0.010225
v -0.176374 2.773810 0.038317
v -0.301664 1.892416 0.079026
v -0.256055 2.729027 0.064207
v -0.383945 1.821415 0.105761
v -0.325897 2.668761 0.086900
v -0.451472 1.734899 0.127702
v -0.383214 2.595325 0.105524
v -0.428340 2.512518 0.120186
v -0.501649 1.636194 0.144005
v -0.532548 1.529092 0.154045
v -0.457912 2.423832 0.129039
v -0.542981 1.417711 0.157435
v -0.461043 2.325555 0.130711
v -0.532548 1.306329 0.154045
v -0.454857 2.230342 0.128806
v -0.501649 1.199228 0.144006
v -0.429796 2.138934 0.120665
v -0.383558 2.056713 0.105636
v -0.325897 1.983425 0.086900
v -0.256055 1.923158 0.064207
v -0.055570 2.801387 0.057496
v -0.109005 2.773810 0.131043
v -0.158251 2.729028 0.198824
v -0.186439 1.892416 0.237621
v -0.201415 2.668761 0.258234
v -0.237291 1.821415 0.307613
v -0.279025 1.734899 0.365055
v -0.236839 2.595325 0.306991
v -0.310036 1.636194 0.407738
v -0.263162 2.511543 0.343221
v -0.279371 2.420635 0.365531
v -0.329132 1.529092 0.434022
v -0.284844 2.326092 0.373064
v -0.335581 1.417711 0.442897
v -0.279772 2.231264 0.366091
v -0.329132 1.306329 0.434022
v -0.310036 1.199228 0.407738
v -0.265194 2.139144 0.346056
v -0.237311 2.056481 0.307649
v -0.201415 1.983425 0.258234
v -0.158251 1.923158 0.198824
v -0.155442 1.920603 -0.232938
v -0.155442 1.920603 -0.232938
v -0.251511 1.920604 -0.100711
v -0.251511 1.920604 -0.100711
v -0.251511 1.920604 0.062731
v -0.251511 1.920604 0.062731
v -0.155442 1.920604 0.194958
v -0.155442 1.920604 0.194958
v -0.294136 1.148618 -0.423833
v -0.475922 1.148618 -0.173626
v -0.475922 1.148618 0.135646
v -0.294136 1.148618 0.385853
vn -0.0000 0.3760 -0.9266
vn -0.0000 0.5468 -0.8373
vn 0.4921 0.5468 -0.6774
vn 0.5446 0.3760 -0.7496
vn -0.0000 -0.9169 -0.3991
vn -0.0000 -0.8225 -0.5688
vn 0.3343 -0.8225 -0.4601
vn 0.2346 -0.9169 -0.3229
vn -0.0000 0.1915 -0.9815
vn 0.5769 0.1915 -0.7940
vn -0.0000 -0.9769 -0.2138
vn 0.1257 -0.9769 -0.1730
vn -0.0000 -0.0000 -1.0000
vn 0.5878 -0.0000 -0.8090
vn -0.0000 -1.0000 -0.0000
vn -0.0000 -0.1915 -0.9815
vn 0.5769 -0.1915 -0.7940
vn -0.0000 -0.3760 -0.9266
vn 0.5446 -0.3760 -0.7496
vn -0.0000 -0.5468 -0.8373
vn 0.4921 -0.5468 -0.6774
vn -0.0000 0.6975 -0.7166
vn -0.0000 0.2242 -0.9745
vn 0.5728 0.2242 -0.7884
vn 0.4212 0.6975 -0.5797
vn -0.0000 -0.6975 -0.7166
vn 0.4212 -0.6975 -0.5797
vn 0.6815 0.6975 -0.2214
vn 0.7963 0.5468 -0.2587
vn 0.6815 -0.6975 -0.2214
vn 0.5409 -0.8225 -0.1758
vn 0.8813 0.3760 -0.2863
vn 0.3796 -0.9169 -0.1233
vn 0.9335 0.1915 -0.3033
vn 0.2033 -0.9769 -0.0661
vn 0.9511 -0.0000 -0.3090
vn 0.9335 -0.1915 -0.3033
vn 0.8813 -0.3760 -0.2863
vn 0.7963 -0.5468 -0.2587
vn 0.9268 0.2242 -0.3011
vn 0.9511 -0.0000 0.3090
vn 0.9335 -0.1915 0.3033
vn 0.8813 -0.3760 0.2863
vn 0.7963 -0.5468 0.2587
vn 0.9268 0.2242 0.3011
vn 0.6815 0.6975 0.2214
vn 0.6815 -0.6975 0.2214
vn 0.7963 0.5468 0.2587
vn 0.5409 -0.8225 0.1758
vn 0.8813 0.3760 0.2863
vn 0.3796 -0.9169 0.1233
vn 0.9335 0.1915 0.3033
vn 0.2033 -0.9769 0.0661
vn 0.4212 -0.6975 0.5797
vn 0.3343 -0.8225 0.4601
vn 0.4921 0.5468 0.6774
vn 0.5446 0.3760 0.7496
vn 0.2346 -0.9169 0.3229
vn 0.5769 0.1915 0.7940
vn 0.1257 -0.9769 0.1730
vn 0.5878 -0.0000 0.8090
vn 0.5769 -0.1915 0.7940
vn 0.5446 -0.3760 0.7496
vn 0.4921 -0.5468 0.6774
vn 0.5728 0.2242 0.7884
vn 0.4212 0.6975 0.5797
vn -0.0000 -0.1915 0.9815
vn -0.0000 -0.3760 0.9266
vn -0.0000 -0.5468 0.8373
vn -0.0000 0.2242 0.9745
vn -0.0000 0.6975 0.7166
vn -0.0000 -0.6975 0.7166
vn -0.0000 0.5468 0.8373
vn -0.0000 -0.8225 0.5688
vn -0.0000 0.3760 0.9266
vn -0.0000 -0.9169 0.3991
vn -0.0000 0.1915 0.9815
vn -0.0000 -0.9769 0.2138
vn -0.0000 -0.0000 1.0000
vn 0.4794 0.5532 -0.6813
vn 0.5399 0.3655 -0.7583
vn 0.3329 -0.8232 -0.4600
vn 0.5605 -0.5665 -0.6041
vn 0.4012 0.5666 -0.7197
vn -0.0000 -0.1493 -0.9888
vn 0.5761 0.1816 -0.7969
vn 0.5875 0.0011 -0.8092
vn -0.0000 0.9769 -0.2138
vn -0.0000 1.0000 -0.0000
vn 0.1257 0.9769 -0.1730
vn 0.5740 -0.1656 -0.8020
vn -0.0000 0.9169 -0.3991
vn 0.2346 0.9169 -0.3229
vn 0.5315 -0.3416 -0.7751
vn -0.0000 0.8225 -0.5688
vn 0.3343 0.8225 -0.4601
vn 0.4550 -0.5590 -0.6932
vn 0.4120 0.7045 -0.5779
vn 0.3888 -0.7204 -0.5743
vn 0.6661 0.7138 -0.2164
vn 0.7817 0.5686 -0.2561
vn 0.6263 -0.7524 -0.2039
vn 0.5385 -0.8242 -0.1750
vn 0.8821 0.3686 -0.2932
vn 0.8085 -0.5666 -0.1592
vn 0.7476 0.5666 -0.3464
vn 0.9353 0.1691 -0.3109
vn 0.9499 -0.0024 -0.3125
vn 0.2033 0.9769 -0.0661
vn 0.9408 -0.1367 -0.3102
vn 0.3796 0.9169 -0.1233
vn 0.8971 -0.3267 -0.2976
vn 0.5409 0.8225 -0.1758
vn 0.7639 -0.5941 -0.2520
vn 0.9509 -0.0062 0.3093
vn 0.9385 -0.1506 0.3107
vn 0.2033 0.9769 0.0661
vn 0.3796 0.9169 0.1233
vn 0.8850 -0.3473 0.3101
vn 0.5409 0.8225 0.1758
vn 0.7671 -0.5738 0.2869
vn 0.6730 0.7044 0.2254
vn 0.6508 -0.7220 0.2349
vn 0.7838 0.5602 0.2680
vn 0.5397 -0.8232 0.1764
vn 0.8759 0.3823 0.2946
vn 0.7476 -0.5666 0.3464
vn 0.9921 -0.0000 0.1251
vn 0.9360 0.1762 0.3047
vn 0.4199 -0.7000 0.5777
vn 0.3344 -0.8227 0.4598
vn 0.4893 0.5500 0.6768
vn 0.5379 0.3832 0.7509
vn 0.4012 -0.5666 0.7197
vn 0.5605 0.5666 0.6040
vn 0.5723 0.1875 0.7983
vn 0.5850 -0.0020 0.8110
vn 0.1257 0.9769 0.1730
vn 0.5752 -0.1768 0.7987
vn 0.2346 0.9169 0.3229
vn 0.5395 -0.3776 0.7526
vn 0.3343 0.8225 0.4601
vn 0.4841 -0.5606 0.6718
vn -0.0000 0.9769 0.2138
vn -0.0000 0.9169 0.3991
vn -0.0000 -0.1818 0.9833
vn -0.0000 -0.3732 0.9278
vn -0.0000 0.8225 0.5688
vn -0.0000 -0.5542 0.8324
vn -0.0000 -0.6998 0.7144
vn -0.0000 -0.8229 0.5681
vn -0.0000 -0.8819 0.4714
vn -0.0000 0.1494 0.9888
vn -0.0000 0.0019 1.0000
vn -0.0000 0.8819 -0.4714
vn -0.5446 0.3760 -0.7496
vn -0.4921 0.5468 -0.6774
vn -0.2346 -0.9169 -0.3229
vn -0.3343 -0.8225 -0.4601
vn -0.5769 0.1915 -0.7940
vn -0.1257 -0.9769 -0.1730
vn -0.5878 -0.0000 -0.8090
vn -0.5769 -0.1915 -0.7940
vn -0.5446 -0.3760 -0.7496
vn -0.4921 -0.5468 -0.6774
vn -0.4212 0.6975 -0.5797
vn -0.5728 0.2242 -0.7884
vn -0.4212 -0.6975 -0.5797
vn -0.7963 0.5468 -0.2587
vn -0.6815 0.6975 -0.2214
vn -0.5409 -0.8225 -0.1758
vn -0.6815 -0.6975 -0.2214
vn -0.8813 0.3760 -0.2863
vn -0.3796 -0.9169 -0.1233
vn -0.9335 0.1915 -0.3033
vn -0.2033 -0.9769 -0.0661
vn -0.9511 -0.0000 -0.3090
vn -0.9335 -0.1915 -0.3033
vn -0.8813 -0.3760 -0.2863
vn -0.7963 -0.5468 -0.2587
vn -0.9268 0.2242 -0.3011
vn -0.9335 -0.1915 0.3033
vn -0.9511 -0.0000 0.3090
vn -0.8813 -0.3760 0.2863
vn -0.7963 -0.5468 0.2587
vn -0.6815 0.6975 0.2214
vn -0.9268 0.2242 0.3011
vn -0.6815 -0.6975 0.2214
vn -0.7963 0.5468 0.2587
vn -0.5409 -0.8225 0.1758
vn -0.8813 0.3760 0.2863
vn -0.3796 -0.9169 0.1233
vn -0.9335 0.1915 0.3033
vn -0.2033 -0.9769 0.0661
vn -0.3343 -0.8225 0.4601
vn -0.4212 -0.6975 0.5797
vn -0.5446 0.3760 0.7496
vn -0.4921 0.5468 0.6774
vn -0.2346 -0.9169 0.3229
vn -0.5769 0.1915 0.7940
vn -0.1257 -0.9769 0.1730
vn -0.5878 -0.0000 0.8090
vn -0.5769 -0.1915 0.7940
vn -0.5446 -0.3760 0.7496
vn -0.4921 -0.5468 0.6774
vn -0.4212 0.6975 0.5797
vn -0.5728 0.2242 0.7884
vn -0.5399 0.3655 -0.7583
vn -0.4794 0.5532 -0.6813
vn -0.4012 0.5666 -0.7197
vn -0.5605 -0.5665 -0.6041
vn -0.3329 -0.8232 -0.4600
vn -0.5761 0.1816 -0.7969
vn -0.5875 0.0011 -0.8092
vn -0.1257 0.9769 -0.1730
vn -0.5740 -0.1656 -0.8020
vn -0.2346 0.9169 -0.3229
vn -0.5315 -0.3416 -0.7751
vn -0.3343 0.8225 -0.4601
vn -0.4550 -0.5590 -0.6932
vn -0.4120 0.7045 -0.5779
vn -0.3888 -0.7204 -0.5743
vn -0.7817 0.5686 -0.2561
vn -0.6661 0.7138 -0.2164
vn -0.5386 -0.8242 -0.1750
vn -0.6263 -0.7524 -0.2039
vn -0.8821 0.3686 -0.2932
vn -0.7476 0.5666 -0.3464
vn -0.8085 -0.5666 -0.1592
vn -0.9353 0.1691 -0.3109
vn -0.9499 -0.0024 -0.3125
vn -0.2033 0.9769 -0.0661
vn -0.9408 -0.1367 -0.3102
vn -0.3796 0.9169 -0.1233
vn -0.8971 -0.3267 -0.2976
vn -0.5409 0.8225 -0.1758
vn -0.7639 -0.5941 -0.2520
vn -0.9385 -0.1506 0.3107
vn -0.9509 -0.0062 0.3093
vn -0.3796 0.9169 0.1233
vn -0.2033 0.9769 0.0661
vn -0.8850 -0.3473 0.3101
vn -0.5409 0.8225 0.1758
vn -0.7671 -0.5738 0.2869
vn -0.6730 0.7044 0.2254
vn -0.6508 -0.7220 0.2349
vn -0.7838 0.5602 0.2680
vn -0.5397 -0.8232 0.1764
vn -0.8759 0.3823 0.2946
vn -0.8085 0.5666 0.1592
vn -0.8512 -0.3327 0.4059
vn -0.9360 0.1762 0.3047
vn -0.3344 -0.8227 0.4598
vn -0.4199 -0.7000 0.5777
vn -0.5379 0.3832 0.7509
vn -0.4893 0.5500 0.6768
vn -0.5605 0.5666 0.6040
vn -0.4012 -0.5666 0.7197
vn -0.5723 0.1875 0.7983
vn -0.5850 -0.0020 0.8110
vn -0.1257 0.9769 0.1730
vn -0.5752 -0.1768 0.7987
vn -0.2346 0.9169 0.3229
vn -0.5395 -0.3776 0.7526
vn -0.3343 0.8225 0.4601
vn -0.4841 -0.5606 0.6718
vt 0.356011 0.352745
vt 0.377573 0.357365
vt 0.367345 0.412108
vt 0.348427 0.409930
vt 0.170749 0.380965
vt 0.202328 0.367674
vt 0.213789 0.414521
vt 0.185799 0.420116
vt 0.335066 0.350225
vt 0.330571 0.408426
vt 0.132030 0.403803
vt 0.145532 0.429213
vt 0.314649 0.349190
vt 0.312966 0.407497
vt 0.074297 0.455062
vt 0.294142 0.348982
vt 0.295348 0.407412
vt 0.272886 0.350224
vt 0.277280 0.407903
vt 0.251140 0.353621
vt 0.258001 0.408858
vt 0.400879 0.363813
vt 0.403346 0.364713
vt 0.389947 0.415803
vt 0.387395 0.415335
vt 0.227957 0.359111
vt 0.237350 0.410941
vt 0.382768 0.462886
vt 0.363146 0.462090
vt 0.239516 0.458840
vt 0.216218 0.458249
vt 0.345169 0.461468
vt 0.188568 0.458353
vt 0.328060 0.461052
vt 0.149754 0.455915
vt 0.311350 0.460437
vt 0.294647 0.459996
vt 0.277436 0.459643
vt 0.259483 0.459200
vt 0.385063 0.462917
vt 0.310273 0.513046
vt 0.292722 0.512438
vt 0.274794 0.511254
vt 0.255908 0.509252
vt 0.387693 0.509524
vt 0.385476 0.509806
vt 0.234979 0.506482
vt 0.364415 0.511658
vt 0.211789 0.501941
vt 0.345737 0.512857
vt 0.182938 0.495700
vt 0.327754 0.513361
vt 0.145706 0.482784
vt 0.223787 0.557374
vt 0.198489 0.547988
vt 0.371800 0.566692
vt 0.349790 0.569566
vt 0.169541 0.533948
vt 0.329065 0.571242
vt 0.133100 0.509004
vt 0.308820 0.571218
vt 0.288581 0.570240
vt 0.268150 0.567499
vt 0.246291 0.563666
vt 0.397916 0.560567
vt 0.395055 0.561344
vt 0.281279 0.640420
vt 0.254846 0.636029
vt 0.228032 0.628022
vt 0.418757 0.621368
vt 0.415741 0.622736
vt 0.200096 0.616019
vt 0.387356 0.633057
vt 0.171942 0.598098
vt 0.360151 0.639604
vt 0.139752 0.571918
vt 0.333189 0.642147
vt 0.106976 0.530309
vt 0.307164 0.643092
vt 0.837455 0.229206
vt 0.851148 0.236071
vt 0.837874 0.272073
vt 0.823957 0.269028
vt 0.498059 0.435771
vt 0.487560 0.447851
vt 0.486953 0.447590
vt 0.486938 0.447583
vt 0.497734 0.435167
vt 0.823393 0.223127
vt 0.810141 0.266063
vt 0.808896 0.217474
vt 0.795765 0.263208
vt 0.913560 0.279972
vt 0.937414 0.306643
vt 0.904734 0.292620
vt 0.793163 0.211700
vt 0.780355 0.260560
vt 0.895022 0.263988
vt 0.883876 0.285169
vt 0.775690 0.205895
vt 0.763475 0.257755
vt 0.879851 0.252688
vt 0.866856 0.279690
vt 0.756637 0.200299
vt 0.743247 0.254448
vt 0.865192 0.243681
vt 0.851916 0.275566
vt 0.732723 0.193589
vt 0.720402 0.250642
vt 0.704552 0.186156
vt 0.688502 0.246243
vt 0.848192 0.308015
vt 0.833885 0.308290
vt 0.714008 0.310701
vt 0.678812 0.311480
vt 0.820428 0.308548
vt 0.485728 0.464305
vt 0.485076 0.464366
vt 0.485056 0.464367
vt 0.806219 0.308815
vt 0.791828 0.308992
vt 0.902777 0.307015
vt 0.776379 0.309342
vt 0.880956 0.307550
vt 0.758906 0.309747
vt 0.863380 0.307887
vt 0.740556 0.310135
vt 0.797353 0.354694
vt 0.782470 0.357927
vt 0.905399 0.321216
vt 0.884684 0.330009
vt 0.765612 0.361469
vt 0.868217 0.335731
vt 0.745549 0.365656
vt 0.853063 0.340349
vt 0.722980 0.370463
vt 0.839226 0.344347
vt 0.691379 0.376285
vt 0.825455 0.347940
vt 0.490154 0.482160
vt 0.489518 0.482491
vt 0.489499 0.482500
vt 0.812080 0.351126
vt 0.737921 0.426661
vt 0.710196 0.435361
vt 0.853861 0.379830
vt 0.840390 0.386930
vt 0.502337 0.497903
vt 0.501850 0.498557
vt 0.501836 0.498573
vt 0.826714 0.393659
vt 0.812489 0.400086
vt 0.913859 0.333992
vt 0.797156 0.406224
vt 0.897022 0.350590
vt 0.780558 0.412346
vt 0.881426 0.362245
vt 0.761391 0.418844
vt 0.867428 0.371796
vt 0.928070 0.343470
vt 0.917100 0.368199
vt 0.820570 0.455717
vt 0.802571 0.464881
vt 0.905061 0.386740
vt 0.782787 0.473408
vt 0.892738 0.401827
vt 0.759548 0.482539
vt 0.879326 0.414790
vt 0.728564 0.494192
vt 0.866037 0.426469
vt 0.523877 0.508477
vt 0.523263 0.509256
vt 0.523263 0.509257
vt 0.851756 0.436818
vt 0.836762 0.446289
vt 0.467480 0.399707
vt 0.477792 0.408240
vt 0.460809 0.436045
vt 0.450118 0.431912
vt 0.456209 0.391681
vt 0.438664 0.428014
vt 0.443585 0.383486
vt 0.426374 0.424500
vt 0.429562 0.376236
vt 0.412997 0.420831
vt 0.413019 0.368552
vt 0.398199 0.417540
vt 0.481367 0.444892
vt 0.495038 0.427082
vt 0.497722 0.435163
vt 0.486826 0.417635
vt 0.471256 0.440195
vt 0.466950 0.464756
vt 0.455752 0.464678
vt 0.444531 0.464351
vt 0.432920 0.464203
vt 0.420832 0.463920
vt 0.407630 0.463515
vt 0.392951 0.463160
vt 0.478449 0.464636
vt 0.424706 0.503285
vt 0.410863 0.506032
vt 0.395274 0.508542
vt 0.483018 0.485370
vt 0.471725 0.489976
vt 0.460457 0.493936
vt 0.449040 0.497303
vt 0.437254 0.500563
vt 0.475670 0.523051
vt 0.464359 0.531090
vt 0.452181 0.538534
vt 0.438707 0.545277
vt 0.423868 0.551866
vt 0.407177 0.557639
vt 0.496475 0.504561
vt 0.486335 0.514331
vt 0.450718 0.603284
vt 0.430620 0.615449
vt 0.520869 0.519156
vt 0.513907 0.535604
vt 0.505007 0.550901
vt 0.494319 0.565116
vt 0.481842 0.578320
vt 0.467523 0.591649
vt 0.370817 0.283032
vt 0.399332 0.290684
vt 0.143557 0.339585
vt 0.175102 0.314075
vt 0.344060 0.277608
vt 0.110004 0.380484
vt 0.317337 0.275885
vt 0.290596 0.276433
vt 0.263492 0.279945
vt 0.235183 0.286455
vt 0.427743 0.303624
vt 0.431132 0.305503
vt 0.206097 0.297581
vt 0.437136 0.203649
vt 0.477134 0.226749
vt 0.124962 0.254006
vt 0.162422 0.220351
vt 0.398697 0.187133
vt 0.090952 0.300835
vt 0.359757 0.176421
vt 0.073004 0.364943
vt 0.320329 0.172251
vt 0.280788 0.174732
vt 0.241019 0.181929
vt 0.201915 0.197439
vt 0.480986 0.229787
vt 0.258151 0.001054
vt 0.329257 0.000159
vt 0.189765 0.023114
vt 0.123437 0.057137
vt 0.556435 0.137483
vt 0.559644 0.142212
vt 0.063094 0.109799
vt 0.514053 0.083690
vt 0.014310 0.183680
vt 0.460083 0.040423
vt 0.000159 0.276353
vt 0.396614 0.014998
vt 0.020699 0.369132
vt 0.019739 0.719782
vt 0.118552 0.656746
vt 0.154643 0.689737
vt 0.060818 0.788230
vt 0.428369 0.874731
vt 0.379911 0.732681
vt 0.418619 0.720062
vt 0.481826 0.838583
vt 0.000159 0.633859
vt 0.088989 0.610354
vt 0.367433 0.898636
vt 0.342181 0.739982
vt 0.015993 0.538280
vt 0.070301 0.545306
vt 0.302496 0.904288
vt 0.304371 0.742422
vt 0.236604 0.899377
vt 0.266437 0.738612
vt 0.171086 0.878918
vt 0.229150 0.728414
vt 0.113625 0.839125
vt 0.191856 0.713058
vt 0.528414 0.794396
vt 0.457707 0.700107
vt 0.461988 0.697304
vt 0.531958 0.790011
vt 0.861826 0.188495
vt 0.876195 0.199705
vt 0.521942 0.428893
vt 0.521943 0.428893
vt 0.521870 0.430096
vt 0.847109 0.178535
vt 0.831464 0.169416
vt 0.927324 0.270293
vt 0.814748 0.160657
vt 0.915795 0.246032
vt 0.796460 0.152430
vt 0.902485 0.227622
vt 0.775001 0.144046
vt 0.889531 0.212567
vt 0.751086 0.136401
vt 0.720378 0.126318
vt 0.915686 0.163149
vt 0.929173 0.183758
vt 0.737190 0.064404
vt 0.770725 0.073135
vt 0.901560 0.145150
vt 0.556607 0.438748
vt 0.556608 0.438749
vt 0.555797 0.440018
vt 0.884836 0.128559
vt 0.866225 0.114679
vt 0.947116 0.268085
vt 0.846079 0.102149
vt 0.946330 0.235473
vt 0.823119 0.091279
vt 0.939304 0.207601
vt 0.799955 0.082674
vt 0.890352 0.022998
vt 0.920149 0.040188
vt 0.990374 0.238826
vt 0.969525 0.276134
vt 0.858666 0.009884
vt 0.999841 0.198288
vt 0.823481 0.002120
vt 0.995813 0.158923
vt 0.787377 0.000159
vt 0.986691 0.122746
vt 0.750584 0.001334
vt 0.969098 0.090438
vt 0.589181 0.477138
vt 0.589180 0.477141
vt 0.586536 0.477044
vt 0.947123 0.063876
vt 0.763871 0.611424
vt 0.752477 0.551310
vt 0.782290 0.542464
vt 0.799408 0.612207
vt 0.973971 0.518505
vt 0.906125 0.468089
vt 0.920042 0.449794
vt 0.989758 0.486625
vt 0.553826 0.509019
vt 0.553824 0.509020
vt 0.553213 0.507684
vt 0.586538 0.477047
vt 0.953899 0.545575
vt 0.890607 0.484550
vt 0.928098 0.569470
vt 0.872881 0.498747
vt 0.970814 0.336056
vt 0.948089 0.345234
vt 0.899330 0.587422
vt 0.853668 0.511742
vt 0.989977 0.374579
vt 0.948078 0.377982
vt 0.868506 0.601330
vt 0.832464 0.522728
vt 0.999841 0.413173
vt 0.941517 0.405535
vt 0.834555 0.609680
vt 0.809069 0.532823
vt 0.997324 0.451220
vt 0.932022 0.429185
vt 0.502001 0.369095
vt 0.511194 0.384720
vt 0.490996 0.353671
vt 0.477603 0.338986
vt 0.461236 0.324956
vt 0.441923 0.311860
vt 0.521693 0.419458
vt 0.517784 0.401578
vt 0.569159 0.369111
vt 0.569091 0.397573
vt 0.563260 0.341568
vt 0.553175 0.314764
vt 0.537830 0.289857
vt 0.518516 0.265489
vt 0.494493 0.240681
vt 0.563055 0.425563
vt 0.617627 0.185976
vt 0.647520 0.227229
vt 0.577511 0.153863
vt 0.612843 0.465618
vt 0.654178 0.427613
vt 0.671865 0.376511
vt 0.678495 0.324187
vt 0.666998 0.273833
vt 0.657195 0.624585
vt 0.550472 0.598046
vt 0.557587 0.572270
vt 0.660132 0.574107
vt 0.645509 0.672474
vt 0.537831 0.622262
vt 0.620114 0.714075
vt 0.521723 0.645545
vt 0.588914 0.750593
vt 0.500909 0.667509
vt 0.550330 0.780020
vt 0.475841 0.687741
vt 0.609150 0.485913
vt 0.558464 0.520887
vt 0.642836 0.524913
vt 0.560801 0.546459
s 1
f 216/159/135 215/160/136 155/161/137 156/162/138
f 222/163/139 153/164/140 163/165/141 164/166/142
f 217/167/143 216/159/135 156/162/138 157/168/144
f 223/169/145 222/163/139 164/166/142 165/170/146
f 218/171/147 217/167/143 157/168/144 158/172/148
f 214/173/149 223/169/145 165/170/146
f 219/174/150 218/171/147 158/172/148 159/175/151
f 220/176/152 219/174/150 159/175/151 160/177/153
f 221/178/154 220/176/152 160/177/153 161/179/155
f 151/180/156 364/181/157 363/182/158 154/183/159
f 152/184/160 221/178/154 161/179/155 162/185/161
f 215/160/136 151/180/156 154/183/159 155/161/137
f 153/164/140 152/184/160 162/185/161 163/165/141
f 155/161/137 154/183/159 166/186/162 167/187/163
f 163/165/141 162/185/161 174/188/164 175/189/165
f 156/162/138 155/161/137 167/187/163 168/190/166
f 164/166/142 163/165/141 175/189/165 176/191/167
f 157/168/144 156/162/138 168/190/166 169/192/168
f 165/170/146 164/166/142 176/191/167 177/193/169
f 158/172/148 157/168/144 169/192/168 170/194/170
f 214/173/149 165/170/146 177/193/169
f 159/175/151 158/172/148 170/194/170 171/195/171
f 160/177/153 159/175/151 171/195/171 172/196/172
f 161/179/155 160/177/153 172/196/172 173/197/173
f 154/183/159 363/182/158 365/198/174 166/186/162
f 162/185/161 161/179/155 173/197/173 174/188/164
f 171/195/171 170/194/170 182/199/175 183/200/176
f 172/196/172 171/195/171 183/200/176 184/201/177
f 173/197/173 172/196/172 184/201/177 185/202/178
f 166/186/162 365/198/174 366/203/179 178/204/180
f 174/188/164 173/197/173 185/202/178 186/205/181
f 167/187/163 166/186/162 178/204/180 179/206/182
f 175/189/165 174/188/164 186/205/181 187/207/183
f 168/190/166 167/187/163 179/206/182 180/208/184
f 176/191/167 175/189/165 187/207/183 188/209/185
f 169/192/168 168/190/166 180/208/184 181/210/186
f 177/193/169 176/191/167 188/209/185 189/211/187
f 170/194/170 169/192/168 181/210/186 182/199/175
f 214/173/149 177/193/169 189/211/187
f 187/207/183 186/205/181 198/212/188 199/213/189
f 180/208/184 179/206/182 191/214/190 192/215/191
f 188/209/185 187/207/183 199/213/189 200/216/192
f 181/210/186 180/208/184 192/215/191 193/217/193
f 189/211/187 188/209/185 200/216/192 201/218/194
f 182/199/175 181/210/186 193/217/193 194/219/195
f 214/173/149 189/211/187 201/218/194
f 183/200/176 182/199/175 194/219/195 195/220/196
f 184/201/177 183/200/176 195/220/196 196/221/197
f 185/202/178 184/201/177 196/221/197 197/222/198
f 178/204/180 366/203/179 367/223/199 190/224/200
f 186/205/181 185/202/178 197/222/198 198/212/188
f 179/206/182 178/204/180 190/224/200 191/214/190
f 196/221/197 195/220/196 207/225/201 208/226/202
f 197/222/198 196/221/197 208/226/202 209/227/203
f 190/224/200 367/223/199 368/228/204 202/229/205
f 198/212/188 197/222/198 209/227/203 210/230/206
f 191/214/190 190/224/200 202/229/205 203/231/207
f 199/213/189 198/212/188 210/230/206 211/232/208
f 192/215/191 191/214/190 203/231/207 204/233/209
f 200/216/192 199/213/189 211/232/208 212/234/210
f 193/217/193 192/215/191 204/233/209 205/235/211
f 201/218/194 200/216/192 212/234/210 213/236/212
f 194/219/195 193/217/193 205/235/211 206/237/213
f 214/173/149 201/218/194 213/236/212
f 195/220/196 194/219/195 206/237/213 207/225/201
f 340/238/135 338/239/136 234/240/214 236/241/215
f 227/242/140 248/243/216 353/244/217 352/245/218 351/246/219
f 343/247/143 340/238/135 236/241/215 238/248/220
f 345/249/147 343/247/143 238/248/220 241/250/221
f 334/251/222 333/252/223 228/253/224
f 347/254/150 345/249/147 241/250/221 242/255/225
f 335/256/226 334/251/222 228/253/224 229/257/227
f 348/258/152 347/254/150 242/255/225 245/259/228
f 336/260/229 335/256/226 229/257/227 230/261/230
f 350/262/154 348/258/152 245/259/228 246/263/231
f 224/264/156 336/260/229 230/261/230 232/265/232
f 226/266/160 350/262/154 246/263/231 247/267/233
f 338/239/136 224/264/156 232/265/232 234/240/214
f 227/268/140 226/266/160 247/267/233 248/269/216
f 234/240/214 232/265/232 254/270/234 256/271/235
f 248/269/216 247/267/233 268/272/236 269/273/237
f 236/241/215 234/240/214 256/271/235 257/274/238
f 248/243/216 269/275/237 355/276/239 354/277/240 353/244/217
f 238/248/220 236/241/215 257/274/238 260/278/241
f 241/250/221 238/248/220 260/278/241 262/279/242
f 228/253/224 333/252/223 249/280/243
f 242/255/225 241/250/221 262/279/242 264/281/244
f 229/257/227 228/253/224 249/280/243 250/282/245
f 245/259/228 242/255/225 264/281/244 266/283/246
f 230/261/230 229/257/227 250/282/245 252/284/247
f 246/263/231 245/259/228 266/283/246 267/285/248
f 232/265/232 230/261/230 252/284/247 254/270/234
f 247/267/233 246/263/231 267/285/248 268/272/236
f 264/281/244 262/279/242 283/286/249 285/287/250
f 250/282/245 249/280/243 270/288/251 271/289/252
f 266/283/246 264/281/244 285/287/250 287/290/253
f 252/284/247 250/282/245 271/289/252 273/291/254
f 267/285/248 266/283/246 287/290/253 288/292/255
f 254/270/234 252/284/247 273/291/254 275/293/256
f 268/272/236 267/285/248 288/292/255 289/294/257
f 256/271/235 254/270/234 275/293/256 277/295/258
f 269/273/237 268/272/236 289/294/257 290/296/259
f 257/274/238 256/271/235 277/295/258 278/297/260
f 355/276/239 269/275/237 290/298/259 357/299/261 356/300/262
f 260/278/241 257/274/238 278/297/260 281/301/263
f 262/279/242 260/278/241 281/301/263 283/286/249
f 249/280/243 333/252/223 270/288/251
f 290/296/259 289/294/257 310/302/264 311/303/265
f 278/297/260 277/295/258 298/304/266 300/305/267
f 357/299/261 290/298/259 311/306/265 359/307/268 358/308/269
f 281/301/263 278/297/260 300/305/267 301/309/270
f 283/286/249 281/301/263 301/309/270 303/310/271
f 270/288/251 333/252/223 291/311/272
f 285/287/250 283/286/249 303/310/271 305/312/273
f 271/289/252 270/288/251 291/311/272 292/313/274
f 287/290/253 285/287/250 305/312/273 308/314/275
f 273/291/254 271/289/252 292/313/274 293/315/276
f 288/292/255 287/290/253 308/314/275 309/316/277
f 275/293/256 273/291/254 293/315/276 295/317/200
f 289/294/257 288/292/255 309/316/277 310/302/264
f 277/295/258 275/293/256 295/317/200 298/304/266
f 292/313/274 291/311/272 312/318/278 313/319/279
f 308/314/275 305/312/273 327/320/280 328/321/281
f 293/315/276 292/313/274 313/319/279 314/322/282
f 309/316/277 308/314/275 328/321/281 330/323/283
f 295/317/200 293/315/276 314/322/282 316/324/205
f 310/302/264 309/316/277 330/323/283 331/325/284
f 298/304/266 295/317/200 316/324/205 319/326/207
f 311/303/265 310/302/264 331/325/284 332/327/285
f 300/305/267 298/304/266 319/326/207 320/328/209
f 311/306/265 332/329/285 361/330/286 360/331/287 359/307/268
f 301/309/270 300/305/267 320/328/209 322/332/211
f 303/310/271 301/309/270 322/332/211 324/333/288
f 291/311/272 333/252/223 312/318/278
f 305/312/273 303/310/271 324/333/288 327/320/280
f 341/334/135 339/335/136 235/336/137 237/337/138
f 342/338/143 341/334/135 237/337/138 239/339/144
f 344/340/147 342/338/143 239/339/144 240/341/148
f 346/342/150 344/340/147 240/341/148 243/343/151
f 349/344/152 346/342/150 243/343/151 244/345/153
f 352/245/218 231/346/230 337/347/229 362/348/289 351/246/219
f 225/349/156 337/347/229 231/346/230 233/350/159
f 339/335/136 225/349/156 233/350/159 235/336/137
f 235/336/137 233/350/159 253/351/162 255/352/163
f 237/337/138 235/336/137 255/352/163 258/353/166
f 239/339/144 237/337/138 258/353/166 259/354/168
f 240/341/148 239/339/144 259/354/168 261/355/170
f 243/343/151 240/341/148 261/355/170 263/356/171
f 244/345/153 243/343/151 263/356/171 265/357/172
f 354/277/240 251/358/247 231/346/230 352/245/218 353/244/217
f 233/350/159 231/346/230 251/358/247 253/351/162
f 263/356/171 261/355/170 282/359/175 284/360/176
f 265/357/172 263/356/171 284/360/176 286/361/177
f 356/300/262 272/362/254 251/358/247 354/277/240 355/276/239
f 253/351/162 251/358/247 272/362/254 274/363/180
f 255/352/163 253/351/162 274/363/180 276/364/182
f 258/353/166 255/352/163 276/364/182 279/365/184
f 259/354/168 258/353/166 279/365/184 280/366/186
f 261/355/170 259/354/168 280/366/186 282/359/175
f 279/365/184 276/364/182 297/367/190 299/368/191
f 280/366/186 279/365/184 299/368/191 302/369/193
f 282/359/175 280/366/186 302/369/193 304/370/195
f 284/360/176 282/359/175 304/370/195 306/371/196
f 286/361/177 284/360/176 306/371/196 307/372/197
f 358/308/269 294/373/276 272/362/254 356/300/262 357/299/261
f 274/363/180 272/362/254 294/373/276 296/374/200
f 276/364/182 274/363/180 296/374/200 297/367/190
f 307/372/197 306/371/196 326/375/201 329/376/202
f 360/331/287 315/377/282 294/373/276 358/308/269 359/307/268
f 296/374/200 294/373/276 315/377/282 317/378/205
f 297/367/190 296/374/200 317/378/205 318/379/207
f 299/368/191 297/367/190 318/379/207 321/380/209
f 302/369/193 299/368/191 321/380/209 323/381/211
f 304/370/195 302/369/193 323/381/211 325/382/213
f 306/371/196 304/370/195 325/382/213 326/375/201
f 363/182/158 364/181/157 349/344/152 244/345/153
f 367/223/199 366/203/179 286/361/177 307/372/197
f 366/203/179 365/198/174 265/357/172 286/361/177
f 365/198/174 363/182/158 244/345/153 265/357/172
f 368/228/204 367/223/199 307/372/197 329/376/202
f 216/159/135 371/383/290 370/384/291 215/160/136
f 222/163/139 379/385/292 378/386/293 153/164/140
f 217/167/143 372/387/294 371/383/290 216/159/135
f 223/169/145 380/388/295 379/385/292 222/163/139
f 218/171/147 373/389/296 372/387/294 217/167/143
f 214/173/149 380/388/295 223/169/145
f 219/174/150 374/390/297 373/389/296 218/171/147
f 220/176/152 375/391/298 374/390/297 219/174/150
f 221/178/154 376/392/299 375/391/298 220/176/152
f 151/180/156 369/393/300 509/394/301 364/181/157
f 152/184/160 377/395/302 376/392/299 221/178/154
f 215/160/136 370/384/291 369/393/300 151/180/156
f 153/164/140 378/386/293 377/395/302 152/184/160
f 370/384/291 382/396/303 381/397/304 369/393/300
f 378/386/293 390/398/305 389/399/306 377/395/302
f 371/383/290 383/400/307 382/396/303 370/384/291
f 379/385/292 391/401/308 390/398/305 378/386/293
f 372/387/294 384/402/309 383/400/307 371/383/290
f 380/388/295 392/403/310 391/401/308 379/385/292
f 373/389/296 385/404/311 384/402/309 372/387/294
f 214/173/149 392/403/310 380/388/295
f 374/390/297 386/405/312 385/404/311 373/389/296
f 375/391/298 387/406/313 386/405/312 374/390/297
f 376/392/299 388/407/314 387/406/313 375/391/298
f 369/393/300 381/397/304 510/408/315 509/394/301
f 377/395/302 389/399/306 388/407/314 376/392/299
f 386/405/312 398/409/316 397/410/317 385/404/311
f 387/406/313 399/411/318 398/409/316 386/405/312
f 388/407/314 400/412/319 399/411/318 387/406/313
f 381/397/304 393/413/320 511/414/321 510/408/315
f 389/399/306 401/415/322 400/412/319 388/407/314
f 382/396/303 394/416/323 393/413/320 381/397/304
f 390/398/305 402/417/324 401/415/322 389/399/306
f 383/400/307 395/418/325 394/416/323 382/396/303
f 391/401/308 403/419/326 402/417/324 390/398/305
f 384/402/309 396/420/327 395/418/325 383/400/307
f 392/403/310 404/421/328 403/419/326 391/401/308
f 385/404/311 397/410/317 396/420/327 384/402/309
f 214/173/149 404/421/328 392/403/310
f 402/422/324 414/423/329 413/424/330 401/425/322
f 395/426/325 407/427/331 406/428/332 394/429/323
f 403/430/326 415/431/333 414/423/329 402/422/324
f 396/432/327 408/433/334 407/427/331 395/426/325
f 404/434/328 416/435/335 415/431/333 403/430/326
f 397/436/317 409/437/336 408/433/334 396/432/327
f 214/173/149 416/435/335 404/434/328
f 398/438/316 410/439/337 409/437/336 397/436/317
f 399/440/318 411/441/338 410/439/337 398/438/316
f 400/442/319 412/443/339 411/441/338 399/440/318
f 393/444/320 405/445/340 512/446/341 511/447/321
f 401/425/322 413/424/330 412/443/339 400/442/319
f 394/429/323 406/428/332 405/445/340 393/444/320
f 411/441/338 208/226/202 207/225/201 410/439/337
f 412/443/339 209/227/203 208/226/202 411/441/338
f 405/445/340 202/229/205 368/228/204 512/446/341
f 413/424/330 210/230/206 209/227/203 412/443/339
f 406/428/332 203/231/207 202/229/205 405/445/340
f 414/423/329 211/232/208 210/230/206 413/424/330
f 407/427/331 204/233/209 203/231/207 406/428/332
f 415/431/333 212/234/210 211/232/208 414/423/329
f 408/433/334 205/235/211 204/233/209 407/427/331
f 416/435/335 213/236/212 212/234/210 415/431/333
f 409/437/336 206/237/213 205/235/211 408/433/334
f 214/173/149 213/236/212 416/435/335
f 410/439/337 207/225/201 206/237/213 409/437/336
f 340/238/135 425/448/342 423/449/343 338/239/136
f 227/242/140 351/246/219 501/450/344 502/451/345 437/452/346
f 343/247/143 427/453/347 425/448/342 340/238/135
f 345/249/147 430/454/348 427/453/347 343/247/143
f 334/251/222 417/455/349 333/252/223
f 347/254/150 431/456/350 430/454/348 345/249/147
f 335/256/226 418/457/351 417/455/349 334/251/222
f 348/258/152 434/458/352 431/456/350 347/254/150
f 336/260/229 419/459/353 418/457/351 335/256/226
f 350/262/154 435/460/354 434/458/352 348/258/152
f 224/264/156 421/461/355 419/459/353 336/260/229
f 226/266/160 436/462/356 435/460/354 350/262/154
f 338/239/136 423/449/343 421/461/355 224/264/156
f 227/268/140 437/463/346 436/462/356 226/266/160
f 423/449/343 445/464/357 443/465/358 421/461/355
f 437/463/346 458/466/359 457/467/360 436/462/356
f 425/448/342 446/468/361 445/464/357 423/449/343
f 437/452/346 502/451/345 503/469/362 504/470/363 458/471/359
f 427/453/347 449/472/364 446/468/361 425/448/342
f 430/454/348 451/473/365 449/472/364 427/453/347
f 417/455/349 438/474/366 333/252/223
f 431/456/350 453/475/367 451/473/365 430/454/348
f 418/457/351 439/476/368 438/474/366 417/455/349
f 434/458/352 455/477/369 453/475/367 431/456/350
f 419/459/353 441/478/370 439/476/368 418/457/351
f 435/460/354 456/479/371 455/477/369 434/458/352
f 421/461/355 443/465/358 441/478/370 419/459/353
f 436/462/356 457/467/360 456/479/371 435/460/354
f 453/475/367 474/480/372 472/481/373 451/473/365
f 439/476/368 460/482/374 459/483/375 438/474/366
f 455/477/369 476/484/376 474/480/372 453/475/367
f 441/478/370 462/485/377 460/482/374 439/476/368
f 456/479/371 477/486/378 476/484/376 455/477/369
f 443/465/358 464/487/379 462/485/377 441/478/370
f 457/467/360 478/488/380 477/486/378 456/479/371
f 445/464/357 466/489/381 464/487/379 443/465/358
f 458/466/359 479/490/382 478/488/380 457/467/360
f 446/468/361 467/491/383 466/489/381 445/464/357
f 504/470/363 505/492/384 506/493/385 479/494/382 458/471/359
f 449/472/364 470/495/386 467/491/383 446/468/361
f 451/473/365 472/481/373 470/495/386 449/472/364
f 438/474/366 459/483/375 333/252/223
f 479/496/382 500/497/387 499/498/388 478/499/380
f 467/500/383 489/501/389 487/502/390 466/503/381
f 506/493/385 507/504/391 508/505/392 500/506/387 479/507/382
f 470/508/386 490/509/393 489/501/389 467/500/383
f 472/510/373 492/511/394 490/509/393 470/508/386
f 459/512/375 480/513/395 333/252/223
f 474/514/372 494/515/396 492/511/394 472/510/373
f 460/516/374 481/517/397 480/513/395 459/512/375
f 476/518/376 497/519/398 494/515/396 474/514/372
f 462/520/377 482/521/399 481/517/397 460/516/374
f 477/522/378 498/523/400 497/519/398 476/518/376
f 464/524/379 484/525/340 482/521/399 462/520/377
f 478/499/380 499/498/388 498/523/400 477/522/378
f 466/503/381 487/502/390 484/525/340 464/524/379
f 481/517/397 313/319/279 312/318/278 480/513/395
f 497/519/398 328/321/281 327/320/280 494/515/396
f 482/521/399 314/322/282 313/319/279 481/517/397
f 498/523/400 330/323/283 328/321/281 497/519/398
f 484/525/340 316/324/205 314/322/282 482/521/399
f 499/498/388 331/325/284 330/323/283 498/523/400
f 487/502/390 319/326/207 316/324/205 484/525/340
f 500/497/387 332/327/285 331/325/284 499/498/388
f 489/501/389 320/328/209 319/326/207 487/502/390
f 500/506/387 508/505/392 360/331/287 361/330/286 332/329/285
f 490/509/393 322/332/211 320/328/209 489/501/389
f 492/511/394 324/333/288 322/332/211 490/509/393
f 480/513/395 312/318/278 333/252/223
f 494/515/396 327/320/280 324/333/288 492/511/394
f 341/334/135 426/526/290 424/527/291 339/335/136
f 342/338/143 428/528/294 426/526/290 341/334/135
f 344/340/147 429/529/296 428/528/294 342/338/143
f 346/342/150 432/530/297 429/529/296 344/340/147
f 349/344/152 433/531/298 432/530/297 346/342/150
f 501/450/344 351/246/219 362/348/289 337/347/229 420/532/353
f 225/349/156 422/533/300 420/532/353 337/347/229
f 339/335/136 424/527/291 422/533/300 225/349/156
f 424/527/291 444/534/303 442/535/304 422/533/300
f 426/526/290 447/536/307 444/534/303 424/527/291
f 428/528/294 448/537/309 447/536/307 426/526/290
f 429/529/296 450/538/311 448/537/309 428/528/294
f 432/530/297 452/539/312 450/538/311 429/529/296
f 433/531/298 454/540/313 452/539/312 432/530/297
f 503/469/362 502/451/345 501/450/344 420/532/353 440/541/370
f 422/533/300 442/535/304 440/541/370 420/532/353
f 452/539/312 473/542/316 471/543/317 450/538/311
f 454/540/313 475/544/318 473/542/316 452/539/312
f 505/492/384 504/470/363 503/469/362 440/541/370 461/545/377
f 442/535/304 463/546/320 461/545/377 440/541/370
f 444/534/303 465/547/323 463/546/320 442/535/304
f 447/536/307 468/548/325 465/547/323 444/534/303
f 448/537/309 469/549/327 468/548/325 447/536/307
f 450/538/311 471/543/317 469/549/327 448/537/309
f 468/550/325 488/551/331 486/552/332 465/553/323
f 469/554/327 491/555/334 488/551/331 468/550/325
f 471/556/317 493/557/336 491/555/334 469/554/327
f 473/558/316 495/559/337 493/557/336 471/556/317
f 475/560/318 496/561/338 495/559/337 473/558/316
f 507/504/391 506/493/385 505/492/384 461/562/377 483/563/399
f 463/564/320 485/565/340 483/563/399 461/562/377
f 465/553/323 486/552/332 485/565/340 463/564/320
f 496/561/338 329/376/202 326/375/201 495/559/337
f 360/331/287 508/505/392 507/504/391 483/563/399 315/377/282
f 485/565/340 317/378/205 315/377/282 483/563/399
f 486/552/332 318/379/207 317/378/205 485/565/340
f 488/551/331 321/380/209 318/379/207 486/552/332
f 491/555/334 323/381/211 321/380/209 488/551/331
f 493/557/336 325/382/213 323/381/211 491/555/334
f 495/559/337 326/375/201 325/382/213 493/557/336
f 509/394/301 433/531/298 349/344/152 364/181/157
f 512/446/341 496/561/338 475/560/318 511/447/321
f 511/414/321 475/544/318 454/540/313 510/408/315
f 510/408/315 454/540/313 433/531/298 509/394/301
f 368/228/204 329/376/202 496/561/338 512/446/341
g Ogen_Ogen
v 0.390509 2.411654 0.211164
v 0.377155 2.480632 0.203285
v 0.419073 2.412081 0.172389
v 0.405815 2.480837 0.164463
v 0.376199 2.449232 0.216381
v 0.418642 2.451074 0.158311
v 0.405496 2.405783 0.193111
v 0.388634 2.491185 0.183799
v 0.412409 2.455138 0.199889
v 0.444232 2.411158 -0.164394
v 0.428766 2.480025 -0.168455
v 0.422203 2.403055 -0.206449
v 0.406745 2.471685 -0.210576
v 0.441193 2.450770 -0.156286
v 0.408009 2.439867 -0.219189
v 0.434944 2.401173 -0.184369
v 0.416046 2.486535 -0.188917
v 0.442310 2.449431 -0.196472
v 0.408393 2.421095 0.218117
v 0.401349 2.414669 0.219183
v 0.396711 2.480523 0.211568
v 0.387995 2.483647 0.211304
v 0.430849 2.421551 0.187588
v 0.429913 2.415096 0.180407
v 0.419675 2.480454 0.180548
v 0.416655 2.483852 0.172481
v 0.429482 2.454089 0.166330
v 0.430473 2.455406 0.175368
v 0.395898 2.453913 0.222670
v 0.387040 2.452247 0.224400
v 0.420031 2.416535 0.204098
v 0.416336 2.408798 0.201130
v 0.405756 2.488838 0.196214
v 0.399474 2.494200 0.191817
v 0.459441 2.416970 -0.177007
v 0.458265 2.413845 -0.172262
v 0.445352 2.480103 -0.180571
v 0.442799 2.482712 -0.176324
v 0.440233 2.409983 -0.213650
v 0.436235 2.405743 -0.214318
v 0.426030 2.472633 -0.217582
v 0.420778 2.474373 -0.218445
v 0.422042 2.442554 -0.227058
v 0.427171 2.443862 -0.225372
v 0.456633 2.453547 -0.169522
v 0.455225 2.453457 -0.164154
v 0.451408 2.408333 -0.194283
v 0.448977 2.403861 -0.192238
v 0.434263 2.485778 -0.198409
v 0.430079 2.489223 -0.196785
vn 0.9588 0.2264 0.1718
vn 0.8361 0.4982 0.2295
vn 0.6203 0.6245 0.4746
vn 0.7846 0.2182 0.5804
vn 0.5423 -0.6952 -0.4718
vn 0.7969 -0.5625 -0.2204
vn 0.4545 -0.8263 0.3328
vn 0.1766 -0.9759 0.1282
vn 0.4571 0.4799 0.7488
vn 0.4488 0.2036 0.8701
vn 0.1108 0.9871 0.1153
vn -0.1925 0.9755 -0.1065
vn -0.5608 0.6489 0.5142
vn -0.2333 0.6844 0.6908
vn -0.2644 0.0844 0.9607
vn -0.5959 0.0066 0.8031
vn 0.0335 -0.5796 0.8142
vn -0.2780 -0.7129 0.6438
vn 0.9426 -0.1102 0.3152
vn 0.7843 -0.2170 0.5811
vn 0.5631 0.7229 -0.4005
vn 0.2963 0.6903 -0.6601
vn 0.5830 0.0590 -0.8103
vn 0.8316 0.1331 -0.5392
vn 0.5718 0.1016 -0.8141
vn 0.5592 0.3931 -0.7299
vn 0.6780 0.5763 -0.4563
vn 0.8603 0.1648 -0.4824
vn -0.1563 -0.8155 -0.5573
vn 0.1771 -0.6941 -0.6978
vn 0.5295 -0.8413 -0.1088
vn 0.2283 -0.9706 0.0756
vn 0.8562 0.4888 -0.1675
vn 0.9710 0.2320 -0.0580
vn 0.1170 0.9670 -0.2265
vn -0.2160 0.9750 -0.0521
vn 0.1877 0.7774 0.6003
vn 0.4900 0.7842 0.3806
vn 0.7394 0.2293 0.6330
vn 0.4538 0.1836 0.8720
vn 0.7646 -0.4833 0.4264
vn 0.4784 -0.5879 0.6523
vn 0.7050 -0.2109 -0.6772
vn 0.8765 -0.2628 -0.4032
vn -0.1341 0.5833 -0.8011
vn -0.4840 0.5612 -0.6715
vn -0.4684 -0.1181 -0.8756
vn -0.1179 -0.0512 -0.9917
vn 0.5835 -0.1206 0.8031
vn 0.9825 -0.1138 -0.1474
vt 0.721610 0.921465
vt 0.724703 0.917927
vt 0.728514 0.917579
vt 0.726519 0.923093
vt 0.717393 0.929537
vt 0.719969 0.928130
vt 0.723647 0.930771
vt 0.722367 0.933852
vt 0.730888 0.919929
vt 0.731035 0.924852
vt 0.729135 0.915858
vt 0.730281 0.912724
vt 0.735975 0.917367
vt 0.732444 0.919149
vt 0.732704 0.925467
vt 0.735975 0.926757
vt 0.728005 0.930974
vt 0.728990 0.934227
vt 0.721518 0.927346
vt 0.724219 0.929199
vt 0.723993 0.916347
vt 0.722349 0.912822
vt 0.716763 0.919831
vt 0.719977 0.920880
vt 0.749008 0.827100
vt 0.752523 0.823552
vt 0.756571 0.823516
vt 0.754240 0.829167
vt 0.744233 0.835897
vt 0.747688 0.833785
vt 0.751178 0.836566
vt 0.749952 0.840495
vt 0.759070 0.826062
vt 0.759075 0.831243
vt 0.756973 0.822546
vt 0.758277 0.818713
vt 0.763583 0.823666
vt 0.760013 0.825641
vt 0.760036 0.831634
vt 0.763844 0.832800
vt 0.755382 0.836864
vt 0.756971 0.840495
vt 0.748665 0.833356
vt 0.751559 0.835628
vt 0.752147 0.822587
vt 0.750465 0.818967
vt 0.744345 0.825252
vt 0.748056 0.826704
vt 0.727286 0.929394
vt 0.754969 0.835893
s 1
f 540/566/401 537/567/402 545/568/403 521/569/404
f 515/570/405 536/571/406 544/572/407 519/573/408
f 521/569/404 545/568/403 533/574/409 541/575/410
f 546/576/411 520/577/412 514/578/413 534/579/414
f 542/580/415 534/579/414 514/578/413 517/581/416
f 519/573/408 544/572/407 532/582/417 513/583/418
f 532/582/417 542/580/415 517/581/416 513/583/418
f 535/584/419 540/566/401 521/569/404 543/585/420
f 538/586/421 516/587/422 520/577/412 546/576/411
f 518/588/423 516/587/422 538/586/421 539/589/424
f 515/570/405 518/588/423 539/589/424 536/571/406
f 556/590/425 553/591/426 561/592/427 530/593/428
f 524/594/429 552/595/430 560/596/431 528/597/432
f 530/593/428 561/592/427 549/598/433 557/599/434
f 562/600/435 529/601/436 523/602/437 550/603/438
f 558/604/439 550/603/438 523/602/437 526/605/440
f 528/597/432 560/596/431 548/606/441 522/607/442
f 548/606/441 558/604/439 526/605/440 522/607/442
f 551/608/443 556/590/425 530/593/428 559/609/444
f 554/610/445 525/611/446 529/601/436 562/600/435
f 527/612/447 525/611/446 554/610/445 555/613/448
f 524/594/429 527/612/447 555/613/448 552/595/430
f 540/566/401 535/584/419 536/571/406 539/589/424
f 544/572/407 536/571/406 535/584/419 543/585/420
f 546/576/411 534/579/414 533/574/409 545/568/403
f 542/580/415 532/582/417 531/614/449 541/575/410
f 537/567/402 540/566/401 539/589/424 538/586/421
f 534/579/414 542/580/415 541/575/410 533/574/409
f 532/582/417 544/572/407 543/585/420 531/614/449
f 538/586/421 546/576/411 545/568/403 537/567/402
f 543/585/420 521/569/404 541/575/410 531/614/449
f 556/590/425 551/608/443 552/595/430 555/613/448
f 560/596/431 552/595/430 551/608/443 559/609/444
f 562/600/435 550/603/438 549/598/433 561/592/427
f 558/604/439 548/606/441 547/615/450 557/599/434
f 553/591/426 556/590/425 555/613/448 554/610/445
f 550/603/438 558/604/439 557/599/434 549/598/433
f 548/606/441 560/596/431 559/609/444 547/615/450
f 554/610/445 562/600/435 561/592/427 553/591/426
f 559/609/444 530/593/428 557/599/434 547/615/450
